<svg width="63" height="63" viewBox="0 0 63 63" fill="none" xmlns="http://www.w3.org/2000/svg">
<g filter="url(#filter0_d_22_17)">
<path d="M47.25 31.5L47.9571 32.2071L48.6642 31.5L47.9571 30.7929L47.25 31.5ZM32.2071 47.9571L47.9571 32.2071L46.5429 30.7929L30.7929 46.5429L32.2071 47.9571ZM47.9571 30.7929L32.2071 15.0429L30.7929 16.4571L46.5429 32.2071L47.9571 30.7929Z" fill="#57CC99"/>
<path d="M31.5 31.5L32.2071 32.2071L32.9142 31.5L32.2071 30.7929L31.5 31.5ZM16.4571 47.9571L32.2071 32.2071L30.7929 30.7929L15.0429 46.5429L16.4571 47.9571ZM32.2071 30.7929L16.4571 15.0429L15.0429 16.4571L30.7929 32.2071L32.2071 30.7929Z" fill="#57CC99"/>
</g>
<defs>
<filter id="filter0_d_22_17" x="-2" y="0" width="67" height="71" filterUnits="userSpaceOnUse" color-interpolation-filters="sRGB">
<feFlood flood-opacity="0" result="BackgroundImageFix"/>
<feColorMatrix in="SourceAlpha" type="matrix" values="0 0 0 0 0 0 0 0 0 0 0 0 0 0 0 0 0 0 127 0" result="hardAlpha"/>
<feOffset dy="6"/>
<feGaussianBlur stdDeviation="1"/>
<feComposite in2="hardAlpha" operator="out"/>
<feColorMatrix type="matrix" values="0 0 0 0 0.501961 0 0 0 0 0.929412 0 0 0 0 0.6 0 0 0 1 0"/>
<feBlend mode="normal" in2="BackgroundImageFix" result="effect1_dropShadow_22_17"/>
<feBlend mode="normal" in="SourceGraphic" in2="effect1_dropShadow_22_17" result="shape"/>
</filter>
</defs>
</svg>
