<svg width="77" height="77" viewBox="0 0 77 77" fill="none" xmlns="http://www.w3.org/2000/svg">
<path fill-rule="evenodd" clip-rule="evenodd" d="M6.41667 14.4165C6.41667 10.6453 6.41667 8.75965 7.58824 7.58808C8.75982 6.4165 10.6454 6.4165 14.4167 6.4165H62.5833C66.3546 6.4165 68.2402 6.4165 69.4118 7.58808C70.5833 8.75965 70.5833 10.6453 70.5833 14.4165V62.5832C70.5833 66.3544 70.5833 68.24 69.4118 69.4116C68.2402 70.5832 66.3546 70.5832 62.5833 70.5832H14.4167C10.6454 70.5832 8.75982 70.5832 7.58824 69.4116C6.41667 68.24 6.41667 66.3544 6.41667 62.5832V14.4165ZM26.1726 54.5178C29.7091 51.8041 34.0423 50.3332 38.5 50.3332C42.9577 50.3332 47.2909 51.8041 50.8274 54.5178C54.364 57.2315 56.9063 61.0363 58.06 65.3421C58.2029 65.8756 57.8864 66.4239 57.3529 66.5668C56.8194 66.7098 56.2711 66.3932 56.1282 65.8597C55.0884 61.9792 52.7972 58.5501 49.6099 56.1045C46.4226 53.6588 42.5175 52.3332 38.5 52.3332C34.4826 52.3332 30.5774 53.6588 27.3901 56.1045C24.2029 58.5501 21.9117 61.9792 20.8719 65.8597C20.7289 66.3932 20.1806 66.7098 19.6471 66.5668C19.1136 66.4239 18.7971 65.8755 18.94 65.3421C20.0938 61.0363 22.636 57.2314 26.1726 54.5178ZM29.875 28.8748C29.875 24.1114 33.7365 20.2498 38.5 20.2498C43.2635 20.2498 47.125 24.1114 47.125 28.8748C47.125 33.6383 43.2635 37.4998 38.5 37.4998C33.7365 37.4998 29.875 33.6383 29.875 28.8748ZM38.5 18.2498C32.632 18.2498 27.875 23.0068 27.875 28.8748C27.875 34.7429 32.632 39.4998 38.5 39.4998C44.368 39.4998 49.125 34.7429 49.125 28.8748C49.125 23.0068 44.368 18.2498 38.5 18.2498Z" fill="white"/>
<rect x="6.91667" y="6.9165" width="63.1667" height="63.1667" rx="3.5" stroke="white"/>
</svg>
