<svg width="370" height="140" viewBox="0 0 370 140" fill="none" xmlns="http://www.w3.org/2000/svg">
<path d="M0 33C0 14.7746 14.7746 0 33 0H337C355.225 0 370 14.7746 370 33V107C370 125.225 355.225 140 337 140H33C14.7746 140 0 125.225 0 107V33Z" fill="#669772"/>
<path d="M73.5394 58.052C74.2594 60.188 74.9554 62.216 75.6274 64.136C76.2994 66.032 76.9594 67.88 77.6074 69.68C78.2554 71.456 78.9154 73.208 79.5874 74.936C80.2594 76.64 80.9794 78.368 81.7474 80.12C82.4914 78.392 83.1994 76.676 83.8714 74.972C84.5674 73.244 85.2394 71.492 85.8874 69.716C86.5594 67.916 87.2194 66.056 87.8674 64.136C88.5394 62.216 89.2354 60.188 89.9554 58.052H92.5474C91.4434 61.196 90.4474 63.956 89.5594 66.332C88.6954 68.708 87.8794 70.856 87.1114 72.776C86.3674 74.696 85.6474 76.472 84.9514 78.104C84.2794 79.712 83.5714 81.344 82.8274 83H80.5594C79.8154 81.344 79.0954 79.712 78.3994 78.104C77.7034 76.472 76.9714 74.696 76.2034 72.776C75.4594 70.856 74.6434 68.708 73.7554 66.332C72.8914 63.956 71.9074 61.196 70.8034 58.052H73.5394Z" fill="white"/>
<path d="M96.1482 58.052H98.5962V83H96.1482V58.052Z" fill="white"/>
<path d="M105.078 83V58.052H119.478V60.176H107.526V68.852H118.182V70.94H107.526V80.876H120.414V83H105.078Z" fill="white"/>
<path d="M139.483 61.112C140.635 64.976 141.787 68.48 142.939 71.624C144.115 74.744 145.255 77.612 146.359 80.228C147.199 77.396 148.027 74.06 148.843 70.22C149.683 66.38 150.487 62.324 151.255 58.052H153.667C153.235 60.62 152.791 63.032 152.335 65.288C151.903 67.52 151.447 69.656 150.967 71.696C150.487 73.712 149.983 75.656 149.455 77.528C148.927 79.376 148.351 81.2 147.727 83H145.099C144.523 81.632 143.947 80.264 143.371 78.896C142.819 77.528 142.267 76.124 141.715 74.684C141.163 73.22 140.611 71.696 140.059 70.112C139.507 68.528 138.943 66.848 138.367 65.072C137.791 66.848 137.215 68.528 136.639 70.112C136.087 71.696 135.535 73.22 134.983 74.684C134.431 76.124 133.867 77.528 133.291 78.896C132.739 80.264 132.175 81.632 131.599 83H129.007C128.359 81.2 127.759 79.376 127.207 77.528C126.679 75.656 126.175 73.712 125.695 71.696C125.239 69.656 124.795 67.52 124.363 65.288C123.955 63.032 123.535 60.62 123.103 58.052H125.623C125.983 60.164 126.355 62.24 126.739 64.28C127.123 66.296 127.519 68.252 127.927 70.148C128.359 72.044 128.791 73.844 129.223 75.548C129.679 77.228 130.123 78.788 130.555 80.228C131.587 77.564 132.691 74.684 133.867 71.588C135.043 68.468 136.207 64.976 137.359 61.112H139.483Z" fill="white"/>
<path d="M183.022 65.54C183.022 67.412 182.53 68.888 181.546 69.968C180.562 71.048 179.266 71.828 177.658 72.308C178.042 72.788 178.534 73.436 179.134 74.252C179.758 75.068 180.394 75.968 181.042 76.952C181.69 77.912 182.326 78.92 182.95 79.976C183.574 81.032 184.102 82.04 184.534 83H181.906C181.402 82.04 180.85 81.08 180.25 80.12C179.674 79.16 179.074 78.236 178.45 77.348C177.85 76.436 177.262 75.596 176.686 74.828C176.11 74.06 175.606 73.388 175.174 72.812C174.406 72.884 173.638 72.92 172.87 72.92H168.838V83H166.39V58.52C167.254 58.28 168.262 58.112 169.414 58.016C170.59 57.896 171.67 57.836 172.654 57.836C176.086 57.836 178.666 58.484 180.394 59.78C182.146 61.076 183.022 62.996 183.022 65.54ZM172.942 59.96C172.03 59.96 171.226 59.996 170.53 60.068C169.858 60.116 169.294 60.164 168.838 60.212V70.832H172.222C173.35 70.832 174.418 70.784 175.426 70.688C176.434 70.568 177.31 70.328 178.054 69.968C178.798 69.584 179.386 69.044 179.818 68.348C180.25 67.652 180.466 66.704 180.466 65.504C180.466 64.4 180.25 63.488 179.818 62.768C179.386 62.048 178.822 61.484 178.126 61.076C177.43 60.644 176.626 60.356 175.714 60.212C174.826 60.044 173.902 59.96 172.942 59.96Z" fill="white"/>
<path d="M188.644 83V58.052H203.044V60.176H191.092V68.852H201.748V70.94H191.092V80.876H203.98V83H188.644Z" fill="white"/>
<path d="M213.977 81.416C215.921 81.416 217.433 81.068 218.513 80.372C219.593 79.652 220.133 78.5 220.133 76.916C220.133 76.004 219.953 75.248 219.593 74.648C219.257 74.024 218.801 73.508 218.225 73.1C217.649 72.668 216.989 72.308 216.245 72.02C215.501 71.708 214.721 71.384 213.905 71.048C212.873 70.64 211.949 70.22 211.133 69.788C210.317 69.356 209.621 68.876 209.045 68.348C208.469 67.796 208.025 67.172 207.713 66.476C207.425 65.78 207.281 64.964 207.281 64.028C207.281 61.892 207.989 60.272 209.405 59.168C210.821 58.064 212.789 57.512 215.309 57.512C215.981 57.512 216.641 57.56 217.289 57.656C217.937 57.752 218.537 57.884 219.089 58.052C219.665 58.196 220.181 58.364 220.637 58.556C221.117 58.748 221.513 58.952 221.825 59.168L220.961 61.22C220.265 60.74 219.413 60.356 218.405 60.068C217.421 59.78 216.353 59.636 215.201 59.636C214.409 59.636 213.677 59.72 213.005 59.888C212.357 60.032 211.793 60.284 211.313 60.644C210.833 60.98 210.449 61.412 210.161 61.94C209.897 62.468 209.765 63.104 209.765 63.848C209.765 64.616 209.909 65.264 210.197 65.792C210.485 66.32 210.881 66.776 211.385 67.16C211.913 67.544 212.525 67.892 213.221 68.204C213.917 68.516 214.673 68.84 215.489 69.176C216.473 69.584 217.397 69.992 218.261 70.4C219.149 70.808 219.917 71.288 220.565 71.84C221.213 72.392 221.729 73.064 222.113 73.856C222.497 74.648 222.689 75.62 222.689 76.772C222.689 79.028 221.897 80.72 220.313 81.848C218.753 82.976 216.629 83.54 213.941 83.54C212.981 83.54 212.105 83.48 211.313 83.36C210.521 83.24 209.813 83.096 209.189 82.928C208.565 82.736 208.037 82.544 207.605 82.352C207.173 82.16 206.837 81.992 206.597 81.848L207.389 79.724C207.629 79.868 207.953 80.036 208.361 80.228C208.769 80.42 209.249 80.612 209.801 80.804C210.353 80.972 210.977 81.116 211.673 81.236C212.369 81.356 213.137 81.416 213.977 81.416Z" fill="white"/>
<path d="M236.211 83.54C234.555 83.54 233.139 83.288 231.963 82.784C230.811 82.28 229.875 81.584 229.155 80.696C228.435 79.808 227.907 78.776 227.571 77.6C227.259 76.4 227.103 75.116 227.103 73.748V58.052H229.551V73.424C229.551 74.792 229.707 75.98 230.019 76.988C230.355 77.972 230.811 78.788 231.387 79.436C231.963 80.084 232.659 80.564 233.475 80.876C234.291 81.188 235.203 81.344 236.211 81.344C237.219 81.344 238.131 81.188 238.947 80.876C239.763 80.564 240.459 80.084 241.035 79.436C241.611 78.788 242.055 77.972 242.367 76.988C242.703 75.98 242.871 74.792 242.871 73.424V58.052H245.319V73.748C245.319 75.116 245.151 76.4 244.815 77.6C244.503 78.776 243.987 79.808 243.267 80.696C242.547 81.584 241.599 82.28 240.423 82.784C239.271 83.288 237.867 83.54 236.211 83.54Z" fill="white"/>
<path d="M262.875 79.4C262.635 78.8 262.287 78.008 261.831 77.024C261.399 76.04 260.907 74.972 260.355 73.82C259.803 72.644 259.239 71.444 258.663 70.22C258.087 68.972 257.535 67.808 257.007 66.728C256.479 65.648 256.011 64.7 255.603 63.884C255.195 63.068 254.895 62.492 254.703 62.156C254.391 65.156 254.139 68.42 253.947 71.948C253.779 75.452 253.623 79.136 253.479 83H251.067C251.283 78.464 251.523 74.12 251.787 69.968C252.075 65.816 252.423 61.844 252.831 58.052H254.991C255.711 59.252 256.479 60.644 257.295 62.228C258.111 63.788 258.915 65.42 259.707 67.124C260.523 68.804 261.303 70.472 262.047 72.128C262.815 73.76 263.487 75.236 264.063 76.556C264.639 75.236 265.299 73.76 266.043 72.128C266.811 70.472 267.591 68.804 268.383 67.124C269.199 65.42 270.015 63.788 270.831 62.228C271.647 60.644 272.415 59.252 273.135 58.052H275.187C275.595 61.844 275.931 65.816 276.195 69.968C276.483 74.12 276.735 78.464 276.951 83H274.467C274.323 79.136 274.155 75.452 273.963 71.948C273.795 68.42 273.555 65.156 273.243 62.156C273.051 62.492 272.751 63.068 272.343 63.884C271.935 64.7 271.467 65.648 270.939 66.728C270.411 67.808 269.859 68.972 269.283 70.22C268.707 71.444 268.143 72.644 267.591 73.82C267.039 74.972 266.535 76.04 266.079 77.024C265.647 78.008 265.311 78.8 265.071 79.4H262.875Z" fill="white"/>
<path d="M282.828 83V58.052H297.228V60.176H285.276V68.852H295.932V70.94H285.276V80.876H298.164V83H282.828Z" fill="white"/>
</svg>
