<svg width="1440" height="468" viewBox="0 0 1440 468" fill="none" xmlns="http://www.w3.org/2000/svg">
<path d="M354.244 2.00003H98.6607H-8L-5.98753 439.614C-5.98753 439.614 25.4879 388.335 76.0204 388.335C76.0204 388.335 77.389 385.713 79.8828 381.137C93.5467 356.061 140.991 272.293 182.178 239.476C229.492 201.778 272.119 196.685 320.708 190.88C351.687 187.18 385.088 183.189 423.674 170.275C457.886 158.824 499.949 114.62 518.26 89.6224C543.042 55.7903 551.517 18.6954 553.783 6.2987C554.288 3.53607 554.484 2.00003 554.484 2.00003H354.244Z" fill="#C7F9CC"/>
<path d="M788.936 2.00003H735.606C735.606 2.00003 733.733 4.75339 730.376 9.52901C730.35 9.56518 730.325 9.60136 730.299 9.63774C730.295 9.64396 730.29 9.65019 730.286 9.65643C710.907 37.216 642.97 130.913 599.765 153.348L598.163 154.179C546.56 180.971 432.941 239.962 405.059 286.275C380.144 327.659 390.245 399.799 392.915 415.937C393.265 418.049 393.487 419.202 393.487 419.202C426.238 398.435 497.309 386.369 518.26 388.335C619.262 397.811 627.939 419.202 627.939 419.202C627.939 419.202 614.858 374.788 627.939 299.219C635.264 256.906 655.221 228.144 694.351 209.605C731.52 191.995 771.295 190.32 809.363 188.717C856.316 186.74 900.672 184.872 934.337 153.348C980.056 110.536 1070.18 2.00003 1070.18 2.00003H788.936Z" fill="#C7F9CC"/>
<path fill-rule="evenodd" clip-rule="evenodd" d="M735.606 2.00003C735.606 2.00003 733.733 4.75339 730.376 9.52901C730.35 9.56518 730.325 9.60136 730.299 9.63774C732.568 6.37269 730.179 2.01262 726.171 2.00003H735.606ZM558.901 2.00003C556.381 2.0082 554.24 3.84557 553.783 6.2987C554.288 3.53607 554.484 2.00003 554.484 2.00003H558.901ZM558.901 2.00003H726.171L726.153 2H558.918L558.901 2.00003ZM76.0204 388.335C76.0204 388.335 77.389 385.713 79.8828 381.137C78.1034 384.418 80.5248 388.401 84.2532 388.924C81.5004 388.538 78.7556 388.335 76.0204 388.335ZM377.053 428.312C381.792 425.994 386.332 423.553 390.607 420.98C391.581 420.394 392.541 419.801 393.487 419.202C393.487 419.202 393.265 418.049 392.915 415.937" fill="#C7F9CC"/>
<path fill-rule="evenodd" clip-rule="evenodd" d="M354.244 2.00003H98.6607H-8L-5.98753 439.614C-5.98753 439.614 25.4879 388.335 76.0204 388.335C76.0204 388.335 77.389 385.713 79.8828 381.137C79.8844 381.134 79.8861 381.131 79.8878 381.128L79.8828 381.137C78.1034 384.418 80.5248 388.401 84.2532 388.924C106.066 391.981 128.381 406.499 150.398 422.188C151.797 423.185 153.194 424.186 154.591 425.19C156.334 426.443 158.075 427.699 159.813 428.954C189.487 450.367 215.384 466 244.564 466C246.675 466 248.988 465.129 251.592 464.625L252.692 464.412L252.724 464.406L252.734 464.404C280.934 458.947 336.327 448.228 377.053 428.312C381.792 425.994 386.332 423.553 390.607 420.98C392.361 419.925 393.243 417.941 392.915 415.937L392.914 415.927C392.914 415.931 392.915 415.934 392.915 415.937C393.265 418.049 393.487 419.202 393.487 419.202C426.238 398.435 497.309 386.369 518.26 388.335C619.262 397.811 627.939 419.202 627.939 419.202C627.939 419.202 614.858 374.788 627.939 299.219C635.264 256.906 655.221 228.144 694.351 209.605C731.52 191.995 771.295 190.32 809.363 188.717C856.316 186.74 900.672 184.872 934.337 153.348C980.056 110.536 1070.18 2.00003 1070.18 2.00003H788.936H735.606C735.606 2.00003 733.733 4.75339 730.376 9.52901L730.299 9.63774L730.286 9.65643C730.285 9.65818 730.283 9.66073 730.282 9.66249L730.286 9.65643L730.299 9.63774C732.568 6.37269 730.179 2.01262 726.171 2.00003H558.901C556.381 2.0082 554.24 3.84557 553.783 6.2987C553.781 6.30471 553.78 6.31071 553.779 6.31672C551.509 18.7314 543.03 55.8067 518.26 89.6224C499.949 114.62 457.886 158.824 423.674 170.275C385.088 183.189 351.687 187.18 320.708 190.88C272.119 196.685 229.492 201.778 182.178 239.476C140.996 272.289 93.5583 356.041 79.8878 381.128C79.8861 381.131 79.8844 381.134 79.8828 381.137L79.8878 381.128C93.5583 356.041 140.996 272.289 182.178 239.476C229.492 201.778 272.119 196.685 320.708 190.88C351.687 187.18 385.088 183.189 423.674 170.275C457.886 158.824 499.949 114.62 518.26 89.6224C543.03 55.8067 551.509 18.7314 553.779 6.31672L553.783 6.2987C554.288 3.53607 554.484 2.00003 554.484 2.00003H354.244ZM598.163 154.179L599.765 153.348C642.967 130.914 710.897 37.2298 730.282 9.66249C730.283 9.66073 730.285 9.65818 730.286 9.65643L730.282 9.66249C710.897 37.2298 642.967 130.914 599.765 153.348L598.163 154.179C546.56 180.971 432.941 239.962 405.059 286.275C380.149 327.65 390.24 399.768 392.914 415.927L392.915 415.937C392.915 415.934 392.914 415.931 392.914 415.927C390.24 399.768 380.149 327.65 405.059 286.275C432.941 239.962 546.56 180.971 598.163 154.179Z" fill="#C7F9CC"/>
<path d="M1187.4 2.00003H1070.18C1070.18 2.00003 980.056 110.536 934.337 153.348C900.672 184.872 856.316 186.74 809.363 188.717C771.295 190.32 731.52 191.995 694.351 209.605C655.221 228.144 635.264 256.906 627.939 299.219C614.858 374.788 627.939 419.202 627.939 419.202C643.24 425.082 710.763 449.091 735.606 449.073C777.608 449.042 801.186 431.877 827.797 412.504C845.792 399.402 865.174 385.292 892.578 374.788C892.578 374.788 950.498 285.684 1007.79 254.412C1051.67 230.462 1091.32 235.915 1132.6 241.594C1166.9 246.312 1202.32 251.186 1242.24 239.476C1251.17 236.858 1259.69 234.494 1267.87 232.224L1267.88 232.222L1267.89 232.218L1267.9 232.217C1315.67 218.962 1338.73 200.472 1376.58 161.811C1414.43 123.15 1431.92 2.00003 1431.92 2.00003H1317.71H1187.4Z" fill="#C7F9CC"/>
<path d="M1445 424.678V2.00003H1431.92C1431.92 2.00003 1414.43 123.15 1376.58 161.811C1338.73 200.472 1315.67 218.962 1267.9 232.217L1267.89 232.218L1267.88 232.222L1267.87 232.224C1259.69 234.494 1251.17 236.858 1242.24 239.476C1202.32 251.186 1166.9 246.312 1132.6 241.594C1091.32 235.915 1051.67 230.462 1007.79 254.412C950.498 285.684 892.578 374.788 892.578 374.788C912.818 367.03 935.602 363.229 962.512 366.429C1025.08 373.87 1022.17 383.957 1053.58 399.785C1081.01 413.612 1079.7 426.372 1124.01 432.644C1183.74 441.097 1193.34 426.2 1227.15 399.785C1232.63 395.508 1265.89 361.948 1306.14 377.88C1346.39 393.811 1349.41 438.618 1381.61 438.618C1419.84 449.571 1445 424.678 1445 424.678Z" fill="#C7F9CC"/>
<path d="M98.6607 2.00003C185.56 2.00003 267.344 2.00008 354.244 2.00003M98.6607 2.00003C76.5236 2.00003 -8 2.00003 -8 2.00003M98.6607 2.00003H354.244M98.6607 2.00003H-8M354.244 2.00003C461.028 1.99997 554.484 2.00003 554.484 2.00003M354.244 2.00003H554.484M735.606 2.00003H788.936H1070.18M735.606 2.00003H726.171M735.606 2.00003C735.606 2.00003 733.733 4.75339 730.376 9.52901M1070.18 2.00003H1187.4H1317.71H1431.92M1070.18 2.00003C1070.18 2.00003 980.056 110.536 934.337 153.348C900.672 184.872 856.316 186.74 809.363 188.717C771.295 190.32 731.52 191.995 694.351 209.605C655.221 228.144 635.264 256.906 627.939 299.219C614.858 374.788 627.939 419.202 627.939 419.202M76.0204 388.335C25.4879 388.335 -5.98753 439.614 -5.98753 439.614L-8 2.00003M76.0204 388.335C76.0204 388.335 77.389 385.713 79.8828 381.137M76.0204 388.335C78.7556 388.335 81.5004 388.538 84.2532 388.924M76.0204 388.335C100.428 388.335 125.603 404.519 150.398 422.188M554.484 2.00003C554.484 2.00003 554.288 3.53607 553.783 6.2987M554.484 2.00003H558.901M182.178 239.476C229.492 201.778 272.119 196.685 320.708 190.88C351.687 187.18 385.088 183.189 423.674 170.275C457.886 158.824 499.949 114.62 518.26 89.6224M182.178 239.476C140.996 272.289 93.5583 356.041 79.8878 381.128M182.178 239.476C140.991 272.293 93.5467 356.061 79.8828 381.137M518.26 89.6224C543.03 55.8067 551.509 18.7314 553.779 6.31672M518.26 89.6224C543.042 55.7903 551.517 18.6954 553.783 6.2987M599.765 153.348L598.163 154.179M599.765 153.348C599.238 153.621 598.704 153.898 598.163 154.179M599.765 153.348C642.967 130.914 710.897 37.2298 730.282 9.66249M599.765 153.348C642.97 130.913 710.907 37.216 730.286 9.65643M405.059 286.275C432.941 239.962 546.56 180.971 598.163 154.179M405.059 286.275C380.149 327.65 390.24 399.768 392.914 415.927M405.059 286.275C380.144 327.659 390.245 399.799 392.915 415.937M393.487 419.202C426.238 398.435 497.309 386.369 518.26 388.335C619.262 397.811 627.939 419.202 627.939 419.202M393.487 419.202C392.541 419.801 391.581 420.394 390.607 420.98M393.487 419.202C393.487 419.202 393.265 418.049 392.915 415.937M393.487 419.202C388.39 422.434 382.871 425.467 377.053 428.312M627.939 419.202C643.24 425.082 710.763 449.091 735.606 449.073C777.608 449.042 801.186 431.877 827.797 412.504C845.792 399.402 865.174 385.292 892.578 374.788M892.578 374.788C912.818 367.03 935.602 363.229 962.512 366.429C1025.08 373.87 1022.17 383.957 1053.58 399.785C1081.01 413.612 1079.7 426.372 1124.01 432.644C1183.74 441.097 1193.34 426.2 1227.15 399.785C1232.63 395.508 1265.89 361.948 1306.14 377.88C1346.39 393.811 1349.41 438.618 1381.61 438.618C1419.84 449.571 1445 424.678 1445 424.678V2.00003H1431.92M892.578 374.788C892.578 374.788 950.498 285.684 1007.79 254.412C1051.67 230.462 1091.32 235.915 1132.6 241.594C1166.9 246.312 1202.32 251.186 1242.24 239.476C1251.17 236.858 1259.69 234.494 1267.87 232.224M252.734 464.404C252.731 464.404 252.727 464.405 252.724 464.406M252.734 464.404L252.724 464.406M252.734 464.404C280.934 458.947 336.327 448.228 377.053 428.312M252.724 464.406L252.692 464.412M252.724 464.406C252.341 464.48 251.964 464.553 251.592 464.625M252.724 464.406C252.713 464.408 252.703 464.41 252.692 464.412M252.692 464.412C252.321 464.484 251.954 464.555 251.592 464.625M252.692 464.412L251.592 464.625M251.592 464.625C248.988 465.129 246.675 466 244.564 466C215.384 466 189.487 450.367 159.813 428.954C158.075 427.699 156.334 426.443 154.591 425.19C153.194 424.186 151.797 423.185 150.398 422.188M1267.89 232.218L1267.9 232.217C1315.67 218.962 1338.73 200.472 1376.58 161.811C1414.43 123.15 1431.92 2.00003 1431.92 2.00003M1267.89 232.218L1267.88 232.222M1267.89 232.218C1267.89 232.22 1267.88 232.221 1267.88 232.222M1267.88 232.222L1267.87 232.224M1267.88 232.222C1267.88 232.223 1267.87 232.224 1267.87 232.224M392.914 415.927C392.914 415.931 392.915 415.934 392.915 415.937M392.914 415.927L392.915 415.937M390.607 420.98C386.332 423.553 381.792 425.994 377.053 428.312M390.607 420.98C392.361 419.925 393.243 417.941 392.915 415.937M558.918 2H726.153M558.918 2L558.901 2.00003M558.918 2C558.913 2 558.907 2.00001 558.901 2.00003M553.779 6.31672C553.78 6.31071 553.781 6.30471 553.783 6.2987M553.779 6.31672L553.783 6.2987M79.8878 381.128C79.8861 381.131 79.8844 381.134 79.8828 381.137M79.8878 381.128L79.8828 381.137M84.2532 388.924C80.5248 388.401 78.1034 384.418 79.8828 381.137M84.2532 388.924C106.066 391.981 128.381 406.499 150.398 422.188M726.153 2L726.171 2.00003M726.153 2C726.159 2 726.165 2.00001 726.171 2.00003M730.282 9.66249C730.283 9.66073 730.285 9.65818 730.286 9.65643M730.282 9.66249L730.286 9.65643M726.171 2.00003H558.901M726.171 2.00003C730.187 2.01265 732.577 6.38935 730.286 9.65643M726.171 2.00003C730.179 2.01262 732.568 6.37269 730.299 9.63774M558.901 2.00003C556.381 2.0082 554.24 3.84557 553.783 6.2987M730.376 9.52901L730.299 9.63774M730.376 9.52901C730.35 9.56518 730.325 9.60136 730.299 9.63774M730.299 9.63774L730.286 9.65643M730.299 9.63774C730.295 9.64396 730.29 9.65019 730.286 9.65643" stroke="white" stroke-width="4"/>
</svg>
