<svg width="77" height="77" viewBox="0 0 77 77" fill="none" xmlns="http://www.w3.org/2000/svg">
<path fill-rule="evenodd" clip-rule="evenodd" d="M9.625 17.625C9.625 13.8538 9.625 11.9681 10.7966 10.7966C11.9681 9.625 13.8538 9.625 17.625 9.625H59.375C63.1462 9.625 65.0319 9.625 66.2034 10.7966C67.375 11.9681 67.375 13.8538 67.375 17.625V59.375C67.375 63.1462 67.375 65.0319 66.2034 66.2034C65.0319 67.375 63.1462 67.375 59.375 67.375H17.625C13.8538 67.375 11.9681 67.375 10.7966 66.2034C9.625 65.0319 9.625 63.1462 9.625 59.375V17.625ZM57.75 24.0625C57.75 26.7204 55.5954 28.875 52.9375 28.875C50.2796 28.875 48.125 26.7204 48.125 24.0625C48.125 21.4046 50.2796 19.25 52.9375 19.25C55.5954 19.25 57.75 21.4046 57.75 24.0625ZM49.3333 41.7083C49.3333 47.6914 44.4831 52.5417 38.5 52.5417C32.5169 52.5417 27.6667 47.6914 27.6667 41.7083C27.6667 35.7252 32.5169 30.875 38.5 30.875C44.4831 30.875 49.3333 35.7252 49.3333 41.7083ZM51.3333 41.7083C51.3333 48.796 45.5877 54.5417 38.5 54.5417C31.4123 54.5417 25.6667 48.796 25.6667 41.7083C25.6667 34.6207 31.4123 28.875 38.5 28.875C45.5877 28.875 51.3333 34.6207 51.3333 41.7083Z" fill="white"/>
</svg>
