<svg width="77" height="77" viewBox="0 0 77 77" fill="none" xmlns="http://www.w3.org/2000/svg">
<path fill-rule="evenodd" clip-rule="evenodd" d="M10.5037 16.9202C9.625 17.7989 9.625 19.2131 9.625 22.0415V24.6663C9.7896 24.6662 9.95654 24.7067 10.1106 24.7923L38.5 40.5642L66.8894 24.7923C67.0435 24.7067 67.2104 24.6662 67.375 24.6663V22.0415C67.375 19.2131 67.375 17.7989 66.4963 16.9202C65.6176 16.0415 64.2034 16.0415 61.375 16.0415H15.625C12.7966 16.0415 11.3824 16.0415 10.5037 16.9202ZM67.375 26.8105L39.4713 42.3125C38.8672 42.6481 38.1328 42.6481 37.5287 42.3125L9.625 26.8105V54.9582C9.625 57.7866 9.625 59.2008 10.5037 60.0795C11.3824 60.9582 12.7966 60.9582 15.625 60.9582H61.375C64.2034 60.9582 65.6176 60.9582 66.4963 60.0795C67.375 59.2008 67.375 57.7866 67.375 54.9582V26.8105Z" fill="white"/>
</svg>
